<svg xmlns="http://www.w3.org/2000/svg" viewBox="0 0 1000 1000">
  <path fill="#2E77BC" d="M0 148.2v703.6h1000V148.2H0zm410.5 433.6l-61.8-146.7h-82.4v211.8l-71.6-211.8H116l-72.7 213.9h48.5l15.2-46.7h87.9l15.2 46.7h87.9V410.9l64.9 187.3h43.6l64.9-186.2v186.2h43.6V435.1h-43.6zm-265.2 121.2l36.4-109.1 35.2 109.1h-71.6zm448.5-121.2h-54.6l-72.7 77.9-72.7-77.9h-54.6v213.9h43.6V558.8l72.7 77.9 72.7-77.9v136.9h43.6V435.1h21.8zm363.7 0h-158.5v213.9h158.5v-43.6h-114.9v-43.6h112.8v-43.6H842.8v-43.6h114.9v-39.4h-.2z"/>
</svg> 