<svg xmlns="http://www.w3.org/2000/svg" viewBox="0 0 1000 618">
  <g transform="translate(0, -160)">
    <path fill="#FF5F00" d="M382 468.6c0 82.6-67.1 149.7-149.7 149.7S82.6 551.2 82.6 468.6s67.1-149.7 149.7-149.7S382 386 382 468.6z"/>
    <path fill="#EB001B" d="M232.3 318.9c-82.6 0-149.7 67.1-149.7 149.7s67.1 149.7 149.7 149.7 149.7-67.1 149.7-149.7-67.1-149.7-149.7-149.7z"/>
    <path fill="#F79E1B" d="M917.4 468.6c0 82.6-67.1 149.7-149.7 149.7S618 551.2 618 468.6s67.1-149.7 149.7-149.7 149.7 67.1 149.7 149.7z"/>
  </g>
</svg> 