<svg xmlns="http://www.w3.org/2000/svg" viewBox="0 0 1000 324">
  <path fill="#1434CB" d="M651.19 0.43H348.81C156.15 0.43 0 35.43 0 78.61v166.78c0 43.19 156.15 78.18 348.81 78.18h302.38c192.66 0 348.81-35 348.81-78.18V78.61C1000 35.43 843.85 0.43 651.19 0.43z"/>
  <path fill="#ffffff" d="M425.33 230.06H386.1l24.49-151.75h39.23l-24.49 151.75zm-82.97-151.75l-37.1 103.5-4.4-22.15-13.19-67.12s-1.7-14.22-19.79-14.22h-61.92l-0.44 2.36s19.35 4.04 42.04 17.44l34.95 131.95h41.79l64.28-151.75h-46.22zm352.85 151.75h36.01l-31.37-151.75h-31.59c-14.22 0-17.66 11.42-17.66 11.42l-57.44 140.33h41.79l7.95-22.15h48.89l3.42 22.15zm-42.48-53.3l20.01-55.26 11.2 55.26h-31.21zm-89.63-58.14l5.51-32.19s-17-6.46-34.73-6.46c-19.13 0-64.72 8.38-64.72 49.24 0 38.48 53.52 38.92 53.52 59.07 0 20.15-47.85 16.55-63.68 3.86l-5.73 33.52s17.22 8.38 43.49 8.38c26.27 0 65.83-13.63 65.83-50.79 0-38.48-53.96-42.11-53.96-59.07-0.01-16.95 37.47-14.81 54.47-5.56z"/>
</svg> 